<?xml version="1.0" standalone="no"?>
<!DOCTYPE svg PUBLIC "-//W3C//DTD SVG 20010904//EN"
 "http://www.w3.org/TR/2001/REC-SVG-20010904/DTD/svg10.dtd">
<svg version="1.0" xmlns="http://www.w3.org/2000/svg"
 width="512.000000pt" height="512.000000pt" viewBox="0 0 512.000000 512.000000"
 preserveAspectRatio="xMidYMid meet">
<metadata>
Created by potrace 1.16, written by Peter Selinger 2001-2019
</metadata>
<g transform="translate(0.000000,512.000000) scale(0.100000,-0.100000)"
fill="#000000" stroke="none">
<path d="M0 2560 l0 -2560 2560 0 2560 0 0 2560 0 2560 -2560 0 -2560 0 0
-2560z m1600 1526 c183 -34 410 -158 410 -225 0 -26 -33 -61 -57 -61 -10 0
-52 23 -93 50 -294 197 -665 165 -924 -81 -223 -211 -293 -515 -186 -802 50
-132 178 -281 311 -360 152 -90 357 -120 531 -78 97 23 206 73 283 130 28 21
58 40 68 44 25 9 67 -13 73 -39 9 -33 -11 -60 -79 -111 -79 -58 -150 -93 -257
-129 -78 -25 -97 -28 -245 -28 -137 -1 -171 2 -238 22 -163 47 -335 160 -433
285 -62 79 -134 221 -159 312 -27 100 -31 283 -7 397 37 176 135 348 267 463
206 181 474 258 735 211z m2310 -15 c295 -80 533 -325 610 -626 30 -113 30
-288 1 -408 -64 -267 -257 -489 -509 -585 -117 -45 -184 -57 -327 -55 -183 1
-306 36 -453 129 -114 72 -145 122 -105 166 25 28 53 22 113 -23 308 -231 726
-202 981 68 137 144 202 310 201 508 -2 273 -157 523 -403 650 -251 130 -528
114 -760 -45 -86 -59 -139 -53 -139 17 0 27 8 38 53 72 85 64 211 121 322 146
88 21 317 13 415 -14z m-1220 -122 c159 -25 277 -86 396 -204 135 -133 192
-262 201 -452 6 -126 -5 -203 -44 -303 -132 -333 -501 -515 -861 -424 -86 22
-210 87 -277 145 -165 144 -248 323 -247 534 0 187 60 346 180 477 171 184
408 267 652 227z m-1923 -1880 c12 -12 198 -9 454 7 137 8 200 -8 253 -66 33
-37 36 -45 36 -100 0 -32 -5 -72 -12 -87 -42 -98 -142 -186 -250 -222 -73 -24
-190 -36 -232 -23 -57 16 -36 27 51 27 77 0 95 4 148 29 113 56 186 159 193
271 3 72 -11 104 -58 127 -45 23 -166 25 -197 3 -31 -22 -382 -630 -410 -712
-21 -58 13 -90 100 -92 38 -1 50 -16 20 -25 -46 -13 -190 -15 -223 -3 -65 23
-54 56 110 332 117 197 248 437 255 468 8 32 7 32 -147 17 -110 -11 -128 -7
-128 24 0 35 16 46 37 25z m2461 -175 c5 -32 -35 -76 -67 -72 -35 4 -40 44
-11 76 27 29 74 27 78 -4z m-1677 -264 c23 -13 24 -31 3 -72 -9 -16 -12 -28
-7 -25 4 3 39 26 76 51 56 38 77 46 113 46 65 0 66 -23 7 -99 -1 -2 -11 3 -20
11 -30 25 -52 28 -93 12 -57 -23 -150 -128 -221 -250 -34 -57 -66 -107 -71
-110 -14 -9 -38 16 -38 39 0 11 44 98 99 191 54 94 104 181 110 194 13 25 15
26 42 12z m524 -4 c17 -12 18 -18 7 -54 -13 -42 -65 -96 -111 -114 -14 -5 -48
-13 -75 -17 -45 -5 -50 -9 -62 -41 -17 -48 -17 -122 0 -145 21 -30 84 -24 162
15 93 45 208 160 274 273 51 88 71 103 90 68 8 -16 3 -34 -26 -88 l-35 -68 48
46 c62 59 92 79 121 79 31 0 37 -22 20 -75 l-15 -44 49 44 c67 60 168 126 187
123 32 -6 21 -45 -55 -201 -56 -116 -78 -170 -78 -201 -1 -41 -1 -41 35 -40
78 2 254 165 348 323 44 73 64 97 90 108 18 8 37 11 42 6 4 -4 -20 -59 -55
-121 -72 -129 -105 -216 -89 -241 17 -26 76 -18 139 20 60 36 150 120 254 238
82 94 166 137 224 115 26 -10 20 -72 -10 -112 -32 -41 -114 -82 -166 -82 -43
0 -52 -12 -68 -87 -30 -137 76 -157 236 -45 92 66 156 137 217 244 27 48 52
88 54 88 2 0 13 -5 24 -10 23 -13 24 -31 3 -72 -9 -16 -12 -28 -7 -25 4 3 39
26 76 51 56 38 77 46 113 46 65 0 66 -23 7 -99 -1 -2 -11 3 -20 11 -30 25 -52
28 -93 12 -57 -23 -150 -128 -221 -250 -34 -57 -66 -107 -71 -110 -14 -9 -38
16 -38 39 0 11 11 40 25 64 14 23 23 43 20 43 -4 0 -26 -16 -48 -36 -115 -98
-296 -144 -351 -88 -18 18 -22 98 -6 139 9 23 0 18 -50 -28 -138 -124 -295
-163 -332 -82 -8 19 -8 35 0 61 11 36 10 35 -61 -33 -120 -116 -243 -160 -289
-103 -27 34 -21 59 62 229 38 80 68 147 65 149 -9 9 -61 -32 -135 -107 -51
-52 -90 -103 -121 -161 -48 -89 -70 -106 -89 -70 -10 18 -5 31 29 88 54 91
104 199 98 214 -7 19 -163 -144 -219 -228 -53 -79 -72 -99 -88 -89 -18 11 -11
64 16 106 28 44 21 43 -42 -7 -64 -53 -170 -98 -239 -102 -51 -3 -64 0 -89 19
-27 21 -28 26 -24 83 15 182 245 404 343 332z m2300 0 c17 -12 18 -18 7 -54
-13 -42 -65 -96 -111 -114 -14 -5 -48 -13 -75 -17 -45 -5 -50 -9 -62 -41 -17
-48 -17 -122 0 -145 39 -53 183 4 304 121 43 41 80 74 85 74 29 0 -29 -69
-118 -140 -132 -105 -286 -149 -349 -99 -27 21 -28 26 -24 83 15 182 245 404
343 332z"/>
<path d="M2480 3834 c-132 -26 -241 -84 -335 -178 -87 -88 -137 -183 -161
-310 -17 -83 -17 -96 -2 -182 23 -136 71 -229 168 -326 58 -58 96 -86 151
-113 138 -65 276 -80 413 -45 272 69 457 297 457 565 1 134 -28 227 -102 336
-48 71 -140 154 -151 136 -5 -8 -8 -7 -8 5 0 19 -48 48 -67 41 -7 -3 -13 2
-13 10 0 25 -124 58 -230 62 -52 2 -106 1 -120 -1z"/>
<path d="M1935 1566 c-25 -25 -52 -60 -61 -77 l-16 -32 37 6 c66 11 114 57
118 113 3 47 -28 43 -78 -10z"/>
<path d="M3450 1584 c-28 -24 -90 -105 -90 -118 0 -12 43 -6 77 11 41 19 73
66 73 106 0 35 -19 35 -60 1z"/>
<path d="M4235 1566 c-25 -25 -52 -60 -61 -77 l-16 -32 37 6 c66 11 114 57
118 113 3 47 -28 43 -78 -10z"/>
</g>
</svg>
